<svg xmlns="http://www.w3.org/2000/svg" width="1100" height="760" viewBox="0 0 1100 760" font-family="'PingFang SC','Microsoft YaHei','Noto Sans CJK SC','WenQuanYi Zen Hei',sans-serif">
<rect width="1100" height="760" fill="#FFFFFF"/>
<text x="24" y="36" font-size="20" text-anchor="start" font-weight="700" fill="#1B2A2F">图 2  XIAO ESP32S3 Plus 引脚接线（D0–D10 和 Sense 相同，对应固件 ENV_ESP32S3SENSE）</text>
<text x="24" y="60" font-size="13" text-anchor="start" font-weight="400" fill="#5E6E72">每个引脚右边 / 左边的标签 = 这根线另一头接到哪里；I²C 三个模块并联在同一对 SDA / SCL 上</text>
<rect x="465" y="110" width="170" height="330" rx="8" fill="#FFF3D6" stroke="#2B3A3F" stroke-width="1.6"/>
<text x="550.0" y="132" font-size="14" text-anchor="middle" font-weight="700" fill="#1B2A2F">XIAO ESP32S3 Plus</text>
<text x="550.0" y="152" font-size="11.5" text-anchor="middle" font-weight="400" fill="#5E6E72">俯视，USB-C 朝上</text>
<rect x="528.0" y="100" width="44" height="14" rx="4" fill="#B9C4C1"/>
<text x="550.0" y="111" font-size="9.5" text-anchor="middle" font-weight="700" fill="#1B2A2F">USB-C</text>
<circle cx="465" cy="190" r="4" fill="#2B3A3F"/>
<text x="473" y="194" font-size="11.5" text-anchor="start" font-weight="600" fill="#1B2A2F">D0</text>
<circle cx="465" cy="228" r="4" fill="#2B3A3F"/>
<text x="473" y="232" font-size="11.5" text-anchor="start" font-weight="600" fill="#1B2A2F">D1</text>
<circle cx="465" cy="266" r="4" fill="#2B3A3F"/>
<text x="473" y="270" font-size="11.5" text-anchor="start" font-weight="600" fill="#1B2A2F">D2</text>
<circle cx="465" cy="304" r="4" fill="#2B3A3F"/>
<text x="473" y="308" font-size="11.5" text-anchor="start" font-weight="600" fill="#1B2A2F">D3</text>
<circle cx="465" cy="342" r="4" fill="#2B3A3F"/>
<text x="473" y="346" font-size="11.5" text-anchor="start" font-weight="600" fill="#1B2A2F">D4</text>
<circle cx="465" cy="380" r="4" fill="#2B3A3F"/>
<text x="473" y="384" font-size="11.5" text-anchor="start" font-weight="600" fill="#1B2A2F">D5</text>
<circle cx="465" cy="418" r="4" fill="#2B3A3F"/>
<text x="473" y="422" font-size="11.5" text-anchor="start" font-weight="600" fill="#1B2A2F">D6</text>
<circle cx="635" cy="190" r="4" fill="#2B3A3F"/>
<text x="627" y="194" font-size="11.5" text-anchor="end" font-weight="600" fill="#1B2A2F">5V</text>
<circle cx="635" cy="228" r="4" fill="#2B3A3F"/>
<text x="627" y="232" font-size="11.5" text-anchor="end" font-weight="600" fill="#1B2A2F">GND</text>
<circle cx="635" cy="266" r="4" fill="#2B3A3F"/>
<text x="627" y="270" font-size="11.5" text-anchor="end" font-weight="600" fill="#1B2A2F">3V3</text>
<circle cx="635" cy="304" r="4" fill="#2B3A3F"/>
<text x="627" y="308" font-size="11.5" text-anchor="end" font-weight="600" fill="#1B2A2F">D10</text>
<circle cx="635" cy="342" r="4" fill="#2B3A3F"/>
<text x="627" y="346" font-size="11.5" text-anchor="end" font-weight="600" fill="#1B2A2F">D9</text>
<circle cx="635" cy="380" r="4" fill="#2B3A3F"/>
<text x="627" y="384" font-size="11.5" text-anchor="end" font-weight="600" fill="#1B2A2F">D8</text>
<circle cx="635" cy="418" r="4" fill="#2B3A3F"/>
<text x="627" y="422" font-size="11.5" text-anchor="end" font-weight="600" fill="#1B2A2F">D7</text>
<path d="M465,190 L425,190" fill="none" stroke="#1F6FB5" stroke-width="2.5" stroke-linejoin="round" stroke-linecap="round"/>
<rect x="205.0" y="179" width="220.0" height="22" rx="11" fill="#1F6FB5"/>
<text x="315.0" y="194.5" font-size="11.5" text-anchor="middle" font-weight="700" fill="#FFFFFF">PCA9685 OE（10 kΩ 上拉到 3V3）</text>
<path d="M465,228 L425,228" fill="none" stroke="#1F6FB5" stroke-width="2.5" stroke-linejoin="round" stroke-linecap="round"/>
<rect x="345.0" y="217" width="80.0" height="22" rx="11" fill="#1F6FB5"/>
<text x="385.0" y="232.5" font-size="11.5" text-anchor="middle" font-weight="700" fill="#FFFFFF">BNO085 INT</text>
<path d="M465,266 L425,266" fill="none" stroke="#1F6FB5" stroke-width="2.5" stroke-linejoin="round" stroke-linecap="round"/>
<rect x="219.0" y="255" width="206.0" height="22" rx="11" fill="#1F6FB5"/>
<text x="322.0" y="270.5" font-size="11.5" text-anchor="middle" font-weight="700" fill="#FFFFFF">WS2812 DIN（串 330 Ω，可选）</text>
<path d="M465,304 L425,304" fill="none" stroke="#1F6FB5" stroke-width="2.5" stroke-linejoin="round" stroke-linecap="round"/>
<rect x="247.0" y="293" width="178.0" height="22" rx="11" fill="#1F6FB5"/>
<text x="336.0" y="308.5" font-size="11.5" text-anchor="middle" font-weight="700" fill="#FFFFFF">电池分压 100k / 22k 中点</text>
<path d="M465,342 L425,342" fill="none" stroke="#1E8A5A" stroke-width="2.5" stroke-linejoin="round" stroke-linecap="round"/>
<rect x="219.0" y="331" width="206.0" height="22" rx="11" fill="#1E8A5A"/>
<text x="322.0" y="346.5" font-size="11.5" text-anchor="middle" font-weight="700" fill="#FFFFFF">SDA：PCA9685 · BNO085 · OLED</text>
<path d="M465,380 L425,380" fill="none" stroke="#1E8A5A" stroke-width="2.5" stroke-linejoin="round" stroke-linecap="round"/>
<rect x="219.0" y="369" width="206.0" height="22" rx="11" fill="#1E8A5A"/>
<text x="322.0" y="384.5" font-size="11.5" text-anchor="middle" font-weight="700" fill="#FFFFFF">SCL：PCA9685 · BNO085 · OLED</text>
<path d="M465,418 L425,418" fill="none" stroke="#1F6FB5" stroke-width="2.5" stroke-linejoin="round" stroke-linecap="round"/>
<rect x="303.0" y="407" width="122.0" height="22" rx="11" fill="#1F6FB5"/>
<text x="364.0" y="422.5" font-size="11.5" text-anchor="middle" font-weight="700" fill="#FFFFFF">TX → LD14P 的 RX</text>
<path d="M635,190 L675,190" fill="none" stroke="#E07B00" stroke-width="2.5" stroke-linejoin="round" stroke-linecap="round"/>
<rect x="675" y="179" width="171.0" height="22" rx="11" fill="#E07B00"/>
<text x="760.5" y="194.5" font-size="11.5" text-anchor="middle" font-weight="700" fill="#FFFFFF">5V_SV 经 1N5819（图 1）</text>
<path d="M635,228 L675,228" fill="none" stroke="#222222" stroke-width="2.5" stroke-linejoin="round" stroke-linecap="round"/>
<rect x="675" y="217" width="52.0" height="22" rx="11" fill="#222222"/>
<text x="701.0" y="232.5" font-size="11.5" text-anchor="middle" font-weight="700" fill="#FFFFFF">公共地</text>
<path d="M635,266 L675,266" fill="none" stroke="#7A4CC2" stroke-width="2.5" stroke-linejoin="round" stroke-linecap="round"/>
<rect x="675" y="255" width="255.0" height="22" rx="11" fill="#7A4CC2"/>
<text x="802.5" y="270.5" font-size="11.5" text-anchor="middle" font-weight="700" fill="#FFFFFF">PCA9685 VCC · BNO085 VIN · OLED VCC</text>
<path d="M635,304 L675,304" fill="none" stroke="#1F6FB5" stroke-width="2.5" stroke-linejoin="round" stroke-linecap="round"/>
<rect x="675" y="293" width="101.0" height="22" rx="11" fill="#1F6FB5"/>
<text x="725.5" y="308.5" font-size="11.5" text-anchor="middle" font-weight="700" fill="#FFFFFF">MAX98357A DIN</text>
<path d="M635,342 L675,342" fill="none" stroke="#1F6FB5" stroke-width="2.5" stroke-linejoin="round" stroke-linecap="round"/>
<rect x="675" y="331" width="101.0" height="22" rx="11" fill="#1F6FB5"/>
<text x="725.5" y="346.5" font-size="11.5" text-anchor="middle" font-weight="700" fill="#FFFFFF">MAX98357A LRC</text>
<path d="M635,380 L675,380" fill="none" stroke="#1F6FB5" stroke-width="2.5" stroke-linejoin="round" stroke-linecap="round"/>
<rect x="675" y="369" width="108.0" height="22" rx="11" fill="#1F6FB5"/>
<text x="729.0" y="384.5" font-size="11.5" text-anchor="middle" font-weight="700" fill="#FFFFFF">MAX98357A BCLK</text>
<path d="M635,418 L675,418" fill="none" stroke="#1F6FB5" stroke-width="2.5" stroke-linejoin="round" stroke-linecap="round"/>
<rect x="675" y="407" width="122.0" height="22" rx="11" fill="#1F6FB5"/>
<text x="736.0" y="422.5" font-size="11.5" text-anchor="middle" font-weight="700" fill="#FFFFFF">RX ← LD14P 的 TX</text>
<text x="550" y="470" font-size="11.5" text-anchor="middle" font-weight="400" fill="#5E6E72">背面 D11–D19 焊盘不接；BAT± 焊盘不接</text>
<text x="550" y="488" font-size="11.5" text-anchor="middle" font-weight="700" fill="#D23B2F">棒状天线一定要插上（U.FL）</text>
<rect x="40" y="540" width="190" height="160" rx="8" fill="#F3F6F5" stroke="#2B3A3F" stroke-width="1.6"/>
<text x="135.0" y="562" font-size="14" text-anchor="middle" font-weight="700" fill="#1B2A2F">PCA9685 模块</text>
<text x="52" y="582" font-size="11.5" text-anchor="start" font-weight="400" fill="#5E6E72">VCC → 3V3</text>
<text x="52" y="599" font-size="11.5" text-anchor="start" font-weight="400" fill="#5E6E72">GND → GND</text>
<text x="52" y="616" font-size="11.5" text-anchor="start" font-weight="400" fill="#5E6E72">SDA → D4 · SCL → D5</text>
<text x="52" y="633" font-size="11.5" text-anchor="start" font-weight="400" fill="#5E6E72">OE → D0（加 10 kΩ 到 3V3）</text>
<text x="52" y="650" font-size="11.5" text-anchor="start" font-weight="400" fill="#5E6E72">V+ → 5V_SV</text>
<rect x="250" y="540" width="190" height="160" rx="8" fill="#F3F6F5" stroke="#2B3A3F" stroke-width="1.6"/>
<text x="345.0" y="562" font-size="14" text-anchor="middle" font-weight="700" fill="#1B2A2F">BNO085 模块</text>
<text x="262" y="582" font-size="11.5" text-anchor="start" font-weight="400" fill="#5E6E72">VIN → 3V3 · GND → GND</text>
<text x="262" y="599" font-size="11.5" text-anchor="start" font-weight="400" fill="#5E6E72">SDA → D4 · SCL → D5</text>
<text x="262" y="616" font-size="11.5" text-anchor="start" font-weight="400" fill="#5E6E72">INT → D1</text>
<text x="262" y="633" font-size="11.5" text-anchor="start" font-weight="400" fill="#5E6E72">DI(ADR) → 3V3 = 0x4B</text>
<text x="262" y="650" font-size="11.5" text-anchor="start" font-weight="400" fill="#5E6E72">RST 悬空（板上有上拉）</text>
<rect x="460" y="540" width="190" height="160" rx="8" fill="#F3F6F5" stroke="#2B3A3F" stroke-width="1.6"/>
<text x="555.0" y="562" font-size="14" text-anchor="middle" font-weight="700" fill="#1B2A2F">LD14P 雷达</text>
<text x="472" y="582" font-size="11.5" text-anchor="start" font-weight="400" fill="#5E6E72">5V → 5V_SV · GND → GND</text>
<text x="472" y="599" font-size="11.5" text-anchor="start" font-weight="400" fill="#5E6E72">雷达 RX ← D6</text>
<text x="472" y="616" font-size="11.5" text-anchor="start" font-weight="400" fill="#5E6E72">雷达 TX → D7</text>
<text x="472" y="633" font-size="11.5" text-anchor="start" font-weight="400" fill="#5E6E72">线序看雷达丝印 / 手册</text>
<rect x="670" y="540" width="190" height="160" rx="8" fill="#F3F6F5" stroke="#2B3A3F" stroke-width="1.6"/>
<text x="765.0" y="562" font-size="14" text-anchor="middle" font-weight="700" fill="#1B2A2F">MAX98357A</text>
<text x="682" y="582" font-size="11.5" text-anchor="start" font-weight="400" fill="#5E6E72">VIN → 5V_SV · GND</text>
<text x="682" y="599" font-size="11.5" text-anchor="start" font-weight="400" fill="#5E6E72">BCLK ← D8 · LRC ← D9</text>
<text x="682" y="616" font-size="11.5" text-anchor="start" font-weight="400" fill="#5E6E72">DIN ← D10</text>
<text x="682" y="633" font-size="11.5" text-anchor="start" font-weight="400" fill="#5E6E72">SD 悬空 = 左右混音</text>
<text x="682" y="650" font-size="11.5" text-anchor="start" font-weight="400" fill="#5E6E72">喇叭接 + / −</text>
<rect x="880" y="540" width="190" height="160" rx="8" fill="#F3F6F5" stroke="#2B3A3F" stroke-width="1.6"/>
<text x="975.0" y="562" font-size="14" text-anchor="middle" font-weight="700" fill="#1B2A2F">OLED 0.96″</text>
<text x="892" y="582" font-size="11.5" text-anchor="start" font-weight="400" fill="#5E6E72">VCC → 3V3 · GND</text>
<text x="892" y="599" font-size="11.5" text-anchor="start" font-weight="400" fill="#5E6E72">SCL → D5</text>
<text x="892" y="616" font-size="11.5" text-anchor="start" font-weight="400" fill="#5E6E72">SDA → D4</text>
<text x="892" y="633" font-size="11.5" text-anchor="start" font-weight="400" fill="#5E6E72">地址 0x3C</text>
<path d="M40,735 L68,735" fill="none" stroke="#1F6FB5" stroke-width="3" stroke-linejoin="round" stroke-linecap="round"/>
<text x="74" y="739" font-size="12" text-anchor="start" font-weight="400" fill="#5E6E72">信号</text>
<path d="M110,735 L138,735" fill="none" stroke="#1E8A5A" stroke-width="3" stroke-linejoin="round" stroke-linecap="round"/>
<text x="144" y="739" font-size="12" text-anchor="start" font-weight="400" fill="#5E6E72">I²C</text>
<path d="M193,735 L221,735" fill="none" stroke="#E07B00" stroke-width="3" stroke-linejoin="round" stroke-linecap="round"/>
<text x="227" y="739" font-size="12" text-anchor="start" font-weight="400" fill="#5E6E72">5 V</text>
<path d="M276,735 L304,735" fill="none" stroke="#7A4CC2" stroke-width="3" stroke-linejoin="round" stroke-linecap="round"/>
<text x="310" y="739" font-size="12" text-anchor="start" font-weight="400" fill="#5E6E72">3.3 V</text>
<path d="M385,735 L413,735" fill="none" stroke="#222222" stroke-width="3" stroke-linejoin="round" stroke-linecap="round"/>
<text x="419" y="739" font-size="12" text-anchor="start" font-weight="400" fill="#5E6E72">GND</text>
</svg>