solid OpenSCAD_Model
  facet normal 0 0 -1
    outer loop
      vertex 1.59999 0 0
      vertex 0 0 0
      vertex 1.59999 6.98999 0
    endloop
  endfacet
  facet normal 0 0 -1
    outer loop
      vertex 11.49 -6 0
      vertex 9.89999 -4.39999 0
      vertex 11.49 0.399994 0
    endloop
  endfacet
  facet normal 0 0 -1
    outer loop
      vertex 11.49 -6 0
      vertex 6.7 -4.39999 0
      vertex 9.89999 -4.39999 0
    endloop
  endfacet
  facet normal 0 0 -1
    outer loop
      vertex 5.09 0 0
      vertex 6.7 -4.39999 0
      vertex 5.09 -6 0
    endloop
  endfacet
  facet normal 0 0 -1
    outer loop
      vertex 5.09 -6 0
      vertex 6.7 -4.39999 0
      vertex 11.49 -6 0
    endloop
  endfacet
  facet normal -0 0 -1
    outer loop
      vertex 11.49 0.399994 0
      vertex 9.89999 -4.39999 0
      vertex 9.89999 0.399994 0
    endloop
  endfacet
  facet normal 0 0 -1
    outer loop
      vertex 9.89999 7 0
      vertex 11.49 2.2 0
      vertex 9.89999 2.2 0
    endloop
  endfacet
  facet normal 0 0 -1
    outer loop
      vertex 11.49 2.2 0
      vertex 9.89999 7 0
      vertex 11.49 8.59999 0
    endloop
  endfacet
  facet normal 0 0 -1
    outer loop
      vertex 6.7 7 0
      vertex 11.49 8.59999 0
      vertex 9.89999 7 0
    endloop
  endfacet
  facet normal 0 0 -1
    outer loop
      vertex 6.7 -4.39999 0
      vertex 5.09 0 0
      vertex 6.7 7 0
    endloop
  endfacet
  facet normal 0 0 -1
    outer loop
      vertex 3.5 6.98999 0
      vertex 5.09 0 0
      vertex 3.5 0 0
    endloop
  endfacet
  facet normal 0 0 -1
    outer loop
      vertex 5.09 0 0
      vertex 3.5 6.98999 0
      vertex 6.7 7 0
    endloop
  endfacet
  facet normal 0 0 -1
    outer loop
      vertex 0 8.59999 0
      vertex 6.7 7 0
      vertex 3.5 6.98999 0
    endloop
  endfacet
  facet normal 0 0 -1
    outer loop
      vertex 0 8.59999 0
      vertex 3.5 6.98999 0
      vertex 1.59999 6.98999 0
    endloop
  endfacet
  facet normal 0 0 -1
    outer loop
      vertex 6.7 7 0
      vertex 0 8.59999 0
      vertex 11.49 8.59999 0
    endloop
  endfacet
  facet normal 0 0 -1
    outer loop
      vertex 0 8.59999 0
      vertex 1.59999 6.98999 0
      vertex 0 0 0
    endloop
  endfacet
  facet normal 0 0 1
    outer loop
      vertex 11.49 8.59999 8
      vertex 9.89999 7 8
      vertex 11.49 2.2 8
    endloop
  endfacet
  facet normal 0 0 1
    outer loop
      vertex 11.49 8.59999 8
      vertex 6.7 7 8
      vertex 9.89999 7 8
    endloop
  endfacet
  facet normal 0 0 1
    outer loop
      vertex 6.7 7 8
      vertex 5.09 0 8
      vertex 6.7 -4.39999 8
    endloop
  endfacet
  facet normal 0 0 1
    outer loop
      vertex 6.7 7 8
      vertex 3.5 6.98999 8
      vertex 5.09 0 8
    endloop
  endfacet
  facet normal -0 0 1
    outer loop
      vertex 0 8.59999 8
      vertex 6.7 7 8
      vertex 11.49 8.59999 8
    endloop
  endfacet
  facet normal 0 0 1
    outer loop
      vertex 6.7 7 8
      vertex 0 8.59999 8
      vertex 3.5 6.98999 8
    endloop
  endfacet
  facet normal 0 0 1
    outer loop
      vertex 3.5 6.98999 8
      vertex 0 8.59999 8
      vertex 1.59999 6.98999 8
    endloop
  endfacet
  facet normal 0 0 1
    outer loop
      vertex 0 0 8
      vertex 1.59999 6.98999 8
      vertex 0 8.59999 8
    endloop
  endfacet
  facet normal 0 0 1
    outer loop
      vertex 1.59999 6.98999 8
      vertex 0 0 8
      vertex 1.59999 0 8
    endloop
  endfacet
  facet normal 0 0 1
    outer loop
      vertex 11.49 2.2 8
      vertex 9.89999 7 8
      vertex 9.89999 2.2 8
    endloop
  endfacet
  facet normal 0 0 1
    outer loop
      vertex 9.89999 -4.39999 8
      vertex 11.49 0.399994 8
      vertex 9.89999 0.399994 8
    endloop
  endfacet
  facet normal 0 0 1
    outer loop
      vertex 11.49 0.399994 8
      vertex 9.89999 -4.39999 8
      vertex 11.49 -6 8
    endloop
  endfacet
  facet normal -0 0 1
    outer loop
      vertex 6.7 -4.39999 8
      vertex 11.49 -6 8
      vertex 9.89999 -4.39999 8
    endloop
  endfacet
  facet normal 0 0 1
    outer loop
      vertex 6.7 -4.39999 8
      vertex 5.09 -6 8
      vertex 11.49 -6 8
    endloop
  endfacet
  facet normal 0 0 1
    outer loop
      vertex 5.09 -6 8
      vertex 6.7 -4.39999 8
      vertex 5.09 0 8
    endloop
  endfacet
  facet normal 0 0 1
    outer loop
      vertex 5.09 0 8
      vertex 3.5 6.98999 8
      vertex 3.5 0 8
    endloop
  endfacet
  facet normal 0 1 -0
    outer loop
      vertex 11.49 0.399994 0
      vertex 9.89999 0.399994 8
      vertex 11.49 0.399994 8
    endloop
  endfacet
  facet normal 0 1 0
    outer loop
      vertex 9.89999 0.399994 8
      vertex 11.49 0.399994 0
      vertex 9.89999 0.399994 0
    endloop
  endfacet
  facet normal -1 0 0
    outer loop
      vertex 9.89999 -4.39999 0
      vertex 9.89999 0.399994 8
      vertex 9.89999 0.399994 0
    endloop
  endfacet
  facet normal -1 -0 0
    outer loop
      vertex 9.89999 0.399994 8
      vertex 9.89999 -4.39999 0
      vertex 9.89999 -4.39999 8
    endloop
  endfacet
  facet normal 0 1 -0
    outer loop
      vertex 9.89999 -4.39999 0
      vertex 6.7 -4.39999 8
      vertex 9.89999 -4.39999 8
    endloop
  endfacet
  facet normal 0 1 0
    outer loop
      vertex 6.7 -4.39999 8
      vertex 9.89999 -4.39999 0
      vertex 6.7 -4.39999 0
    endloop
  endfacet
  facet normal 1 -0 0
    outer loop
      vertex 6.7 -4.39999 8
      vertex 6.7 7 0
      vertex 6.7 7 8
    endloop
  endfacet
  facet normal 1 0 0
    outer loop
      vertex 6.7 7 0
      vertex 6.7 -4.39999 8
      vertex 6.7 -4.39999 0
    endloop
  endfacet
  facet normal 0 -1 0
    outer loop
      vertex 6.7 7 0
      vertex 9.89999 7 8
      vertex 6.7 7 8
    endloop
  endfacet
  facet normal 0 -1 -0
    outer loop
      vertex 9.89999 7 8
      vertex 6.7 7 0
      vertex 9.89999 7 0
    endloop
  endfacet
  facet normal -1 0 0
    outer loop
      vertex 9.89999 2.2 0
      vertex 9.89999 7 8
      vertex 9.89999 7 0
    endloop
  endfacet
  facet normal -1 -0 0
    outer loop
      vertex 9.89999 7 8
      vertex 9.89999 2.2 0
      vertex 9.89999 2.2 8
    endloop
  endfacet
  facet normal 0 -1 0
    outer loop
      vertex 9.89999 2.2 0
      vertex 11.49 2.2 8
      vertex 9.89999 2.2 8
    endloop
  endfacet
  facet normal 0 -1 -0
    outer loop
      vertex 11.49 2.2 8
      vertex 9.89999 2.2 0
      vertex 11.49 2.2 0
    endloop
  endfacet
  facet normal 1 -0 0
    outer loop
      vertex 11.49 2.2 8
      vertex 11.49 8.59999 0
      vertex 11.49 8.59999 8
    endloop
  endfacet
  facet normal 1 0 0
    outer loop
      vertex 11.49 8.59999 0
      vertex 11.49 2.2 8
      vertex 11.49 2.2 0
    endloop
  endfacet
  facet normal 0 1 -0
    outer loop
      vertex 11.49 8.59999 0
      vertex 0 8.59999 8
      vertex 11.49 8.59999 8
    endloop
  endfacet
  facet normal 0 1 0
    outer loop
      vertex 0 8.59999 8
      vertex 11.49 8.59999 0
      vertex 0 8.59999 0
    endloop
  endfacet
  facet normal -1 0 0
    outer loop
      vertex 0 0 0
      vertex 0 8.59999 8
      vertex 0 8.59999 0
    endloop
  endfacet
  facet normal -1 -0 0
    outer loop
      vertex 0 8.59999 8
      vertex 0 0 0
      vertex 0 0 8
    endloop
  endfacet
  facet normal 0 -1 0
    outer loop
      vertex 0 0 0
      vertex 1.59999 0 8
      vertex 0 0 8
    endloop
  endfacet
  facet normal 0 -1 -0
    outer loop
      vertex 1.59999 0 8
      vertex 0 0 0
      vertex 1.59999 0 0
    endloop
  endfacet
  facet normal 1 0 0
    outer loop
      vertex 1.59999 6.98999 8
      vertex 1.59999 6.1 4
      vertex 1.59999 6.98999 0
    endloop
  endfacet
  facet normal 1 0 0
    outer loop
      vertex 1.59999 6.98999 8
      vertex 1.59999 6.05433 4.22961
      vertex 1.59999 6.1 4
    endloop
  endfacet
  facet normal 1 0 0
    outer loop
      vertex 1.59999 6.98999 8
      vertex 1.59999 5.92426 4.42426
      vertex 1.59999 6.05433 4.22961
    endloop
  endfacet
  facet normal 1 0 0
    outer loop
      vertex 1.59999 6.98999 8
      vertex 1.59999 5.72961 4.55433
      vertex 1.59999 5.92426 4.42426
    endloop
  endfacet
  facet normal 1 0 0
    outer loop
      vertex 1.59999 6.98999 8
      vertex 1.59999 5.5 4.6
      vertex 1.59999 5.72961 4.55433
    endloop
  endfacet
  facet normal 1 0 0
    outer loop
      vertex 1.59999 6.98999 8
      vertex 1.59999 5.27039 4.55433
      vertex 1.59999 5.5 4.6
    endloop
  endfacet
  facet normal 1 -0 0
    outer loop
      vertex 1.59999 0 8
      vertex 1.59999 5.27039 4.55433
      vertex 1.59999 6.98999 8
    endloop
  endfacet
  facet normal 1 0 0
    outer loop
      vertex 1.59999 5.27039 4.55433
      vertex 1.59999 0 8
      vertex 1.59999 5.07574 4.42426
    endloop
  endfacet
  facet normal 1 0 0
    outer loop
      vertex 1.59999 4.94567 4.22961
      vertex 1.59999 0 8
      vertex 1.59999 4.9 4
    endloop
  endfacet
  facet normal 1 0 0
    outer loop
      vertex 1.59999 5.07574 4.42426
      vertex 1.59999 0 8
      vertex 1.59999 4.94567 4.22961
    endloop
  endfacet
  facet normal 1 -0 0
    outer loop
      vertex 1.59999 6.05433 3.77039
      vertex 1.59999 6.98999 0
      vertex 1.59999 6.1 4
    endloop
  endfacet
  facet normal 1 -0 0
    outer loop
      vertex 1.59999 5.92426 3.57574
      vertex 1.59999 6.98999 0
      vertex 1.59999 6.05433 3.77039
    endloop
  endfacet
  facet normal 1 -0 0
    outer loop
      vertex 1.59999 5.72961 3.44567
      vertex 1.59999 6.98999 0
      vertex 1.59999 5.92426 3.57574
    endloop
  endfacet
  facet normal 1 -0 0
    outer loop
      vertex 1.59999 5.5 3.4
      vertex 1.59999 6.98999 0
      vertex 1.59999 5.72961 3.44567
    endloop
  endfacet
  facet normal 1 0 0
    outer loop
      vertex 1.59999 5.27039 3.44567
      vertex 1.59999 6.98999 0
      vertex 1.59999 5.5 3.4
    endloop
  endfacet
  facet normal 1 0 0
    outer loop
      vertex 1.59999 0 0
      vertex 1.59999 5.27039 3.44567
      vertex 1.59999 5.07574 3.57574
    endloop
  endfacet
  facet normal 1 0 0
    outer loop
      vertex 1.59999 0 0
      vertex 1.59999 5.07574 3.57574
      vertex 1.59999 4.94567 3.77039
    endloop
  endfacet
  facet normal 1 0 0
    outer loop
      vertex 1.59999 0 0
      vertex 1.59999 4.9 4
      vertex 1.59999 0 8
    endloop
  endfacet
  facet normal 1 0 0
    outer loop
      vertex 1.59999 4.9 4
      vertex 1.59999 0 0
      vertex 1.59999 4.94567 3.77039
    endloop
  endfacet
  facet normal 1 0 0
    outer loop
      vertex 1.59999 5.27039 3.44567
      vertex 1.59999 0 0
      vertex 1.59999 6.98999 0
    endloop
  endfacet
  facet normal 0 -1 0
    outer loop
      vertex 1.59999 6.98999 0
      vertex 3.5 6.98999 8
      vertex 1.59999 6.98999 8
    endloop
  endfacet
  facet normal 0 -1 -0
    outer loop
      vertex 3.5 6.98999 8
      vertex 1.59999 6.98999 0
      vertex 3.5 6.98999 0
    endloop
  endfacet
  facet normal -1 0 0
    outer loop
      vertex 3.5 0 0
      vertex 3.5 6.98999 8
      vertex 3.5 6.98999 0
    endloop
  endfacet
  facet normal -1 -0 0
    outer loop
      vertex 3.5 6.98999 8
      vertex 3.5 0 0
      vertex 3.5 0 8
    endloop
  endfacet
  facet normal 0 -1 0
    outer loop
      vertex 3.5 0 0
      vertex 5.09 0 8
      vertex 3.5 0 8
    endloop
  endfacet
  facet normal 0 -1 -0
    outer loop
      vertex 5.09 0 8
      vertex 3.5 0 0
      vertex 5.09 0 0
    endloop
  endfacet
  facet normal -1 0 0
    outer loop
      vertex 5.09 -6 0
      vertex 5.09 0 8
      vertex 5.09 0 0
    endloop
  endfacet
  facet normal -1 -0 0
    outer loop
      vertex 5.09 0 8
      vertex 5.09 -6 0
      vertex 5.09 -6 8
    endloop
  endfacet
  facet normal 0 -1 0
    outer loop
      vertex 5.09 -6 0
      vertex 11.49 -6 8
      vertex 5.09 -6 8
    endloop
  endfacet
  facet normal 0 -1 -0
    outer loop
      vertex 11.49 -6 8
      vertex 5.09 -6 0
      vertex 11.49 -6 0
    endloop
  endfacet
  facet normal 1 -0 0
    outer loop
      vertex 11.49 -6 8
      vertex 11.49 0.399994 0
      vertex 11.49 0.399994 8
    endloop
  endfacet
  facet normal 1 0 0
    outer loop
      vertex 11.49 0.399994 0
      vertex 11.49 -6 8
      vertex 11.49 -6 0
    endloop
  endfacet
  facet normal 0 0.831452 -0.555597
    outer loop
      vertex 1.94 5.92426 3.57574
      vertex 1.59999 6.05433 3.77039
      vertex 1.94 6.05433 3.77039
    endloop
  endfacet
  facet normal 0 0.831452 -0.555597
    outer loop
      vertex 1.59999 6.05433 3.77039
      vertex 1.94 5.92426 3.57574
      vertex 1.59999 5.92426 3.57574
    endloop
  endfacet
  facet normal 0 -0.555597 -0.831452
    outer loop
      vertex 1.59999 5.07574 3.57574
      vertex 1.94 5.27039 3.44567
      vertex 1.94 5.07574 3.57574
    endloop
  endfacet
  facet normal -0 -0.555597 -0.831452
    outer loop
      vertex 1.94 5.27039 3.44567
      vertex 1.59999 5.07574 3.57574
      vertex 1.59999 5.27039 3.44567
    endloop
  endfacet
  facet normal 0 0.980787 0.195081
    outer loop
      vertex 1.94 6.1 4
      vertex 1.59999 6.05433 4.22961
      vertex 1.94 6.05433 4.22961
    endloop
  endfacet
  facet normal 0 0.980787 0.195081
    outer loop
      vertex 1.59999 6.05433 4.22961
      vertex 1.94 6.1 4
      vertex 1.59999 6.1 4
    endloop
  endfacet
  facet normal -0 0.555597 0.831452
    outer loop
      vertex 1.59999 5.92426 4.42426
      vertex 1.94 5.72961 4.55433
      vertex 1.94 5.92426 4.42426
    endloop
  endfacet
  facet normal 0 0.555597 0.831452
    outer loop
      vertex 1.94 5.72961 4.55433
      vertex 1.59999 5.92426 4.42426
      vertex 1.59999 5.72961 4.55433
    endloop
  endfacet
  facet normal 0 0.195081 -0.980787
    outer loop
      vertex 1.59999 5.5 3.4
      vertex 1.94 5.72961 3.44567
      vertex 1.94 5.5 3.4
    endloop
  endfacet
  facet normal 0 0.195081 -0.980787
    outer loop
      vertex 1.94 5.72961 3.44567
      vertex 1.59999 5.5 3.4
      vertex 1.59999 5.72961 3.44567
    endloop
  endfacet
  facet normal -0 0.195081 0.980787
    outer loop
      vertex 1.59999 5.72961 4.55433
      vertex 1.94 5.5 4.6
      vertex 1.94 5.72961 4.55433
    endloop
  endfacet
  facet normal 0 0.195081 0.980787
    outer loop
      vertex 1.94 5.5 4.6
      vertex 1.59999 5.72961 4.55433
      vertex 1.59999 5.5 4.6
    endloop
  endfacet
  facet normal 0 -0.980787 -0.195081
    outer loop
      vertex 1.59999 4.94567 3.77039
      vertex 1.94 4.9 4
      vertex 1.59999 4.9 4
    endloop
  endfacet
  facet normal 0 -0.980787 -0.195081
    outer loop
      vertex 1.94 4.9 4
      vertex 1.59999 4.94567 3.77039
      vertex 1.94 4.94567 3.77039
    endloop
  endfacet
  facet normal 0 -0.195081 0.980787
    outer loop
      vertex 1.59999 5.5 4.6
      vertex 1.94 5.27039 4.55433
      vertex 1.94 5.5 4.6
    endloop
  endfacet
  facet normal 0 -0.195081 0.980787
    outer loop
      vertex 1.94 5.27039 4.55433
      vertex 1.59999 5.5 4.6
      vertex 1.59999 5.27039 4.55433
    endloop
  endfacet
  facet normal 0 0.980787 -0.195081
    outer loop
      vertex 1.94 6.05433 3.77039
      vertex 1.59999 6.1 4
      vertex 1.94 6.1 4
    endloop
  endfacet
  facet normal 0 0.980787 -0.195081
    outer loop
      vertex 1.59999 6.1 4
      vertex 1.94 6.05433 3.77039
      vertex 1.59999 6.05433 3.77039
    endloop
  endfacet
  facet normal 0 -0.980787 0.195081
    outer loop
      vertex 1.59999 4.9 4
      vertex 1.94 4.94567 4.22961
      vertex 1.59999 4.94567 4.22961
    endloop
  endfacet
  facet normal 0 -0.980787 0.195081
    outer loop
      vertex 1.94 4.94567 4.22961
      vertex 1.59999 4.9 4
      vertex 1.94 4.9 4
    endloop
  endfacet
  facet normal 0 0.555597 -0.831452
    outer loop
      vertex 1.59999 5.72961 3.44567
      vertex 1.94 5.92426 3.57574
      vertex 1.94 5.72961 3.44567
    endloop
  endfacet
  facet normal 0 0.555597 -0.831452
    outer loop
      vertex 1.94 5.92426 3.57574
      vertex 1.59999 5.72961 3.44567
      vertex 1.59999 5.92426 3.57574
    endloop
  endfacet
  facet normal 0 -0.195081 -0.980787
    outer loop
      vertex 1.59999 5.27039 3.44567
      vertex 1.94 5.5 3.4
      vertex 1.94 5.27039 3.44567
    endloop
  endfacet
  facet normal -0 -0.195081 -0.980787
    outer loop
      vertex 1.94 5.5 3.4
      vertex 1.59999 5.27039 3.44567
      vertex 1.59999 5.5 3.4
    endloop
  endfacet
  facet normal 0 -0.831452 -0.555597
    outer loop
      vertex 1.59999 5.07574 3.57574
      vertex 1.94 4.94567 3.77039
      vertex 1.59999 4.94567 3.77039
    endloop
  endfacet
  facet normal 0 -0.831452 -0.555597
    outer loop
      vertex 1.94 4.94567 3.77039
      vertex 1.59999 5.07574 3.57574
      vertex 1.94 5.07574 3.57574
    endloop
  endfacet
  facet normal 0 -0.555597 0.831452
    outer loop
      vertex 1.59999 5.27039 4.55433
      vertex 1.94 5.07574 4.42426
      vertex 1.94 5.27039 4.55433
    endloop
  endfacet
  facet normal 0 -0.555597 0.831452
    outer loop
      vertex 1.94 5.07574 4.42426
      vertex 1.59999 5.27039 4.55433
      vertex 1.59999 5.07574 4.42426
    endloop
  endfacet
  facet normal 0 0.831452 0.555597
    outer loop
      vertex 1.94 6.05433 4.22961
      vertex 1.59999 5.92426 4.42426
      vertex 1.94 5.92426 4.42426
    endloop
  endfacet
  facet normal 0 0.831452 0.555597
    outer loop
      vertex 1.59999 5.92426 4.42426
      vertex 1.94 6.05433 4.22961
      vertex 1.59999 6.05433 4.22961
    endloop
  endfacet
  facet normal 0 -0.831452 0.555597
    outer loop
      vertex 1.59999 4.94567 4.22961
      vertex 1.94 5.07574 4.42426
      vertex 1.59999 5.07574 4.42426
    endloop
  endfacet
  facet normal 0 -0.831452 0.555597
    outer loop
      vertex 1.94 5.07574 4.42426
      vertex 1.59999 4.94567 4.22961
      vertex 1.94 4.94567 4.22961
    endloop
  endfacet
  facet normal 1 0 0
    outer loop
      vertex 1.94 6.05433 4.22961
      vertex 1.94 6.05433 3.77039
      vertex 1.94 6.1 4
    endloop
  endfacet
  facet normal 1 0 0
    outer loop
      vertex 1.94 5.92426 4.42426
      vertex 1.94 6.05433 3.77039
      vertex 1.94 6.05433 4.22961
    endloop
  endfacet
  facet normal 1 0 0
    outer loop
      vertex 1.94 5.92426 4.42426
      vertex 1.94 5.92426 3.57574
      vertex 1.94 6.05433 3.77039
    endloop
  endfacet
  facet normal 1 0 0
    outer loop
      vertex 1.94 5.72961 4.55433
      vertex 1.94 5.92426 3.57574
      vertex 1.94 5.92426 4.42426
    endloop
  endfacet
  facet normal 1 0 0
    outer loop
      vertex 1.94 5.72961 4.55433
      vertex 1.94 5.72961 3.44567
      vertex 1.94 5.92426 3.57574
    endloop
  endfacet
  facet normal 1 0 0
    outer loop
      vertex 1.94 5.5 4.6
      vertex 1.94 5.72961 3.44567
      vertex 1.94 5.72961 4.55433
    endloop
  endfacet
  facet normal 1 0 0
    outer loop
      vertex 1.94 5.5 4.6
      vertex 1.94 5.5 3.4
      vertex 1.94 5.72961 3.44567
    endloop
  endfacet
  facet normal 1 -0 0
    outer loop
      vertex 1.94 5.27039 4.55433
      vertex 1.94 5.5 3.4
      vertex 1.94 5.5 4.6
    endloop
  endfacet
  facet normal 1 0 0
    outer loop
      vertex 1.94 5.27039 4.55433
      vertex 1.94 5.27039 3.44567
      vertex 1.94 5.5 3.4
    endloop
  endfacet
  facet normal 1 -0 0
    outer loop
      vertex 1.94 5.07574 4.42426
      vertex 1.94 5.27039 3.44567
      vertex 1.94 5.27039 4.55433
    endloop
  endfacet
  facet normal 1 0 0
    outer loop
      vertex 1.94 5.07574 4.42426
      vertex 1.94 5.07574 3.57574
      vertex 1.94 5.27039 3.44567
    endloop
  endfacet
  facet normal 1 -0 0
    outer loop
      vertex 1.94 4.94567 4.22961
      vertex 1.94 5.07574 3.57574
      vertex 1.94 5.07574 4.42426
    endloop
  endfacet
  facet normal 1 0 0
    outer loop
      vertex 1.94 4.94567 4.22961
      vertex 1.94 4.94567 3.77039
      vertex 1.94 5.07574 3.57574
    endloop
  endfacet
  facet normal 1 0 -0
    outer loop
      vertex 1.94 4.94567 3.77039
      vertex 1.94 4.94567 4.22961
      vertex 1.94 4.9 4
    endloop
  endfacet
endsolid OpenSCAD_Model
