<svg xmlns="http://www.w3.org/2000/svg" width="1100" height="700" viewBox="0 0 1100 700" font-family="'PingFang SC','Microsoft YaHei','Noto Sans CJK SC','WenQuanYi Zen Hei',sans-serif">
<rect width="1100" height="700" fill="#FFFFFF"/>
<text x="24" y="36" font-size="20" text-anchor="start" font-weight="700" fill="#1B2A2F">图 2  信号接线：Arduino Uno R3 引脚</text>
<text x="24" y="60" font-size="13" text-anchor="start" font-weight="400" fill="#5E6E72">浅灰 = USB Host Shield 占用（D9–D13），D7 也留空；舵机信号 D2–D6、D8；A3 测舵机电压；D0 接语音模块</text>
<rect x="280" y="300" width="540" height="250" rx="10" fill="#E3F1F4" stroke="#2B3A3F" stroke-width="1.6"/>
<text x="550.0" y="419.0" font-size="17" text-anchor="middle" font-weight="700" fill="#1B2A2F">Arduino Uno R3</text>
<text x="550.0" y="441.0" font-size="11.5" text-anchor="middle" font-weight="400" fill="#5E6E72">（上面叠插 USB Host Shield，引脚一一对应）</text>
<rect x="266" y="340" width="46" height="50" rx="4" fill="#B9C4C1"/>
<text x="289" y="370" font-size="9.5" text-anchor="middle" font-weight="700" fill="#1B2A2F">USB-B</text>
<rect x="266" y="460" width="46" height="40" rx="4" fill="#555"/>
<text x="289" y="484" font-size="9.5" text-anchor="middle" font-weight="700" fill="#FFFFFF">DC</text>
<circle cx="350" cy="300" r="5" fill="#9AA5A8"/>
<text x="350" y="320" font-size="9.5" text-anchor="middle" font-weight="700" fill="#1B2A2F">SCL</text>
<circle cx="374" cy="300" r="5" fill="#9AA5A8"/>
<text x="374" y="320" font-size="9.5" text-anchor="middle" font-weight="700" fill="#1B2A2F">SDA</text>
<circle cx="398" cy="300" r="5" fill="#9AA5A8"/>
<text x="398" y="320" font-size="9.5" text-anchor="middle" font-weight="700" fill="#1B2A2F">AREF</text>
<circle cx="422" cy="300" r="5" fill="#1F6FB5"/>
<text x="422" y="320" font-size="9.5" text-anchor="middle" font-weight="700" fill="#1B2A2F">GND</text>
<circle cx="446" cy="300" r="5" fill="#C8CDD0"/>
<text x="446" y="320" font-size="9.5" text-anchor="middle" font-weight="700" fill="#1B2A2F">D13</text>
<circle cx="470" cy="300" r="5" fill="#C8CDD0"/>
<text x="470" y="320" font-size="9.5" text-anchor="middle" font-weight="700" fill="#1B2A2F">D12</text>
<circle cx="494" cy="300" r="5" fill="#C8CDD0"/>
<text x="494" y="320" font-size="9.5" text-anchor="middle" font-weight="700" fill="#1B2A2F">D11</text>
<circle cx="518" cy="300" r="5" fill="#C8CDD0"/>
<text x="518" y="320" font-size="9.5" text-anchor="middle" font-weight="700" fill="#1B2A2F">D10</text>
<circle cx="542" cy="300" r="5" fill="#C8CDD0"/>
<text x="542" y="320" font-size="9.5" text-anchor="middle" font-weight="700" fill="#1B2A2F">D9</text>
<circle cx="566" cy="300" r="5" fill="#1F6FB5"/>
<text x="566" y="320" font-size="9.5" text-anchor="middle" font-weight="700" fill="#1B2A2F">D8</text>
<circle cx="614" cy="300" r="5" fill="#9AA5A8"/>
<text x="614" y="320" font-size="9.5" text-anchor="middle" font-weight="700" fill="#1B2A2F">D7</text>
<circle cx="638" cy="300" r="5" fill="#1F6FB5"/>
<text x="638" y="320" font-size="9.5" text-anchor="middle" font-weight="700" fill="#1B2A2F">D6</text>
<circle cx="662" cy="300" r="5" fill="#1F6FB5"/>
<text x="662" y="320" font-size="9.5" text-anchor="middle" font-weight="700" fill="#1B2A2F">D5</text>
<circle cx="686" cy="300" r="5" fill="#1F6FB5"/>
<text x="686" y="320" font-size="9.5" text-anchor="middle" font-weight="700" fill="#1B2A2F">D4</text>
<circle cx="710" cy="300" r="5" fill="#1F6FB5"/>
<text x="710" y="320" font-size="9.5" text-anchor="middle" font-weight="700" fill="#1B2A2F">D3</text>
<circle cx="734" cy="300" r="5" fill="#1F6FB5"/>
<text x="734" y="320" font-size="9.5" text-anchor="middle" font-weight="700" fill="#1B2A2F">D2</text>
<circle cx="758" cy="300" r="5" fill="#9AA5A8"/>
<text x="758" y="320" font-size="9.5" text-anchor="middle" font-weight="700" fill="#1B2A2F">D1</text>
<circle cx="782" cy="300" r="5" fill="#1F6FB5"/>
<text x="782" y="320" font-size="9.5" text-anchor="middle" font-weight="700" fill="#1B2A2F">D0</text>
<circle cx="414" cy="550" r="5" fill="#9AA5A8"/>
<text x="414" y="538" font-size="9.5" text-anchor="middle" font-weight="700" fill="#1B2A2F">IOREF</text>
<circle cx="438" cy="550" r="5" fill="#9AA5A8"/>
<text x="438" y="538" font-size="9.5" text-anchor="middle" font-weight="700" fill="#1B2A2F">RST</text>
<circle cx="462" cy="550" r="5" fill="#9AA5A8"/>
<text x="462" y="538" font-size="9.5" text-anchor="middle" font-weight="700" fill="#1B2A2F">3V3</text>
<circle cx="486" cy="550" r="5" fill="#1F6FB5"/>
<text x="486" y="538" font-size="9.5" text-anchor="middle" font-weight="700" fill="#1B2A2F">5V</text>
<circle cx="510" cy="550" r="5" fill="#1F6FB5"/>
<text x="510" y="538" font-size="9.5" text-anchor="middle" font-weight="700" fill="#1B2A2F">GND</text>
<circle cx="534" cy="550" r="5" fill="#1F6FB5"/>
<text x="534" y="538" font-size="9.5" text-anchor="middle" font-weight="700" fill="#1B2A2F">GND</text>
<circle cx="558" cy="550" r="5" fill="#9AA5A8"/>
<text x="558" y="538" font-size="9.5" text-anchor="middle" font-weight="700" fill="#1B2A2F">VIN</text>
<circle cx="654" cy="550" r="5" fill="#9AA5A8"/>
<text x="654" y="538" font-size="9.5" text-anchor="middle" font-weight="700" fill="#1B2A2F">A0</text>
<circle cx="678" cy="550" r="5" fill="#9AA5A8"/>
<text x="678" y="538" font-size="9.5" text-anchor="middle" font-weight="700" fill="#1B2A2F">A1</text>
<circle cx="702" cy="550" r="5" fill="#9AA5A8"/>
<text x="702" y="538" font-size="9.5" text-anchor="middle" font-weight="700" fill="#1B2A2F">A2</text>
<circle cx="726" cy="550" r="5" fill="#1F6FB5"/>
<text x="726" y="538" font-size="9.5" text-anchor="middle" font-weight="700" fill="#1B2A2F">A3</text>
<circle cx="750" cy="550" r="5" fill="#9AA5A8"/>
<text x="750" y="538" font-size="9.5" text-anchor="middle" font-weight="700" fill="#1B2A2F">A4</text>
<circle cx="774" cy="550" r="5" fill="#9AA5A8"/>
<text x="774" y="538" font-size="9.5" text-anchor="middle" font-weight="700" fill="#1B2A2F">A5</text>
<rect x="260" y="90" width="580" height="110" rx="8" fill="#F3F6F5" stroke="#2B3A3F" stroke-width="1.6"/>
<text x="550.0" y="112" font-size="14" text-anchor="middle" font-weight="700" fill="#1B2A2F">舵机分线板（图 3）</text>
<text x="550.0" y="130" font-size="11.5" text-anchor="middle" font-weight="400" fill="#5E6E72">每个舵机插一个 3 针排针：S（信号）· V+ · GND</text>
<circle cx="734" cy="200" r="4" fill="#1F6FB5"/>
<text x="734" y="192" font-size="11.5" text-anchor="middle" font-weight="600" fill="#1B2A2F">J1</text>
<path d="M734,200 L734,300" fill="none" stroke="#1F6FB5" stroke-width="2.5" stroke-linejoin="round" stroke-linecap="round"/>
<circle cx="710" cy="200" r="4" fill="#1F6FB5"/>
<text x="710" y="192" font-size="11.5" text-anchor="middle" font-weight="600" fill="#1B2A2F">J2</text>
<path d="M710,200 L710,300" fill="none" stroke="#1F6FB5" stroke-width="2.5" stroke-linejoin="round" stroke-linecap="round"/>
<circle cx="686" cy="200" r="4" fill="#1F6FB5"/>
<text x="686" y="192" font-size="11.5" text-anchor="middle" font-weight="600" fill="#1B2A2F">J3</text>
<path d="M686,200 L686,300" fill="none" stroke="#1F6FB5" stroke-width="2.5" stroke-linejoin="round" stroke-linecap="round"/>
<circle cx="662" cy="200" r="4" fill="#1F6FB5"/>
<text x="662" y="192" font-size="11.5" text-anchor="middle" font-weight="600" fill="#1B2A2F">J4</text>
<path d="M662,200 L662,300" fill="none" stroke="#1F6FB5" stroke-width="2.5" stroke-linejoin="round" stroke-linecap="round"/>
<circle cx="638" cy="200" r="4" fill="#1F6FB5"/>
<text x="638" y="192" font-size="11.5" text-anchor="middle" font-weight="600" fill="#1B2A2F">J5</text>
<path d="M638,200 L638,300" fill="none" stroke="#1F6FB5" stroke-width="2.5" stroke-linejoin="round" stroke-linecap="round"/>
<circle cx="566" cy="200" r="4" fill="#1F6FB5"/>
<text x="566" y="192" font-size="11.5" text-anchor="middle" font-weight="600" fill="#1B2A2F">J6</text>
<path d="M566,200 L566,300" fill="none" stroke="#1F6FB5" stroke-width="2.5" stroke-linejoin="round" stroke-linecap="round"/>
<rect x="900" y="110" width="170" height="110" rx="8" fill="#F3F6F5" stroke="#2B3A3F" stroke-width="1.6" stroke-dasharray="6 4"/>
<text x="985.0" y="132" font-size="14" text-anchor="middle" font-weight="700" fill="#1B2A2F">可选：语音模块</text>
<text x="985.0" y="150" font-size="11.5" text-anchor="middle" font-weight="400" fill="#5E6E72">CI-03T / ASR-PRO</text>
<text x="985.0" y="166" font-size="11.5" text-anchor="middle" font-weight="400" fill="#5E6E72">9600 bps</text>
<circle cx="900" cy="190" r="4" fill="#1F6FB5"/>
<text x="908" y="194" font-size="11.5" text-anchor="start" font-weight="600" fill="#1B2A2F">TX</text>
<path d="M900,190 L880,190 L880,268 L782,268 L782,300" fill="none" stroke="#1F6FB5" stroke-width="2.5" stroke-linejoin="round" stroke-linecap="round" stroke-dasharray="7 5"/>
<text x="885" y="256" font-size="11.5" text-anchor="start" font-weight="700" fill="#1F6FB5">TX → D0</text>
<rect x="40" y="90" width="190" height="150" rx="8" fill="#F3F6F5" stroke="#2B3A3F" stroke-width="1.6"/>
<text x="135.0" y="112" font-size="14" text-anchor="middle" font-weight="700" fill="#1B2A2F">USB Host Shield 2.0</text>
<text x="135.0" y="130" font-size="11.5" text-anchor="middle" font-weight="400" fill="#5E6E72">直接叠插在 Uno 上</text>
<text x="135.0" y="146" font-size="11.5" text-anchor="middle" font-weight="400" fill="#5E6E72">占用 D9–D13</text>
<text x="135.0" y="162" font-size="11.5" text-anchor="middle" font-weight="400" fill="#5E6E72">D7 留空</text>
<text x="135.0" y="178" font-size="11.5" text-anchor="middle" font-weight="400" fill="#5E6E72">USB-A 口插 G7 Pro</text>
<rect x="706" y="573" width="137.6" height="22" rx="11" fill="#1F6FB5"/>
<text x="774.8" y="588.5" font-size="11.5" text-anchor="middle" font-weight="700" fill="#FFFFFF">A3 ← 分压（图 1）</text>
<rect x="426" y="573" width="152.0" height="22" rx="11" fill="#A87B00"/>
<text x="502.0" y="588.5" font-size="11.5" text-anchor="middle" font-weight="700" fill="#FFFFFF">5V ← MP1584 经 SS14</text>
<path d="M534,550 L534,614 L574,614" fill="none" stroke="#222222" stroke-width="2" stroke-linejoin="round" stroke-linecap="round"/>
<rect x="574" y="603" width="116.0" height="22" rx="11" fill="#222222"/>
<text x="632.0" y="618.5" font-size="11.5" text-anchor="middle" font-weight="700" fill="#FFFFFF">GND（接电源地）</text>
<circle cx="50" cy="636" r="10" fill="#1B2A2F"/>
<text x="50" y="640.5" font-size="12" text-anchor="middle" font-weight="700" fill="#FFFFFF">1</text>
<text x="68" y="640" font-size="13" text-anchor="start" font-weight="400" fill="#1B2A2F">舵机信号线用杜邦线；舵机的 V+ / GND 只接分线板，不接 Uno</text>
<circle cx="50" cy="666" r="10" fill="#1B2A2F"/>
<text x="50" y="670.5" font-size="12" text-anchor="middle" font-weight="700" fill="#FFFFFF">2</text>
<text x="68" y="670" font-size="13" text-anchor="start" font-weight="400" fill="#1B2A2F">上传程序时拔掉语音模块的 TX 线（D0 也是下载口）</text>
<circle cx="630" cy="636" r="10" fill="#1B2A2F"/>
<text x="630" y="640.5" font-size="12" text-anchor="middle" font-weight="700" fill="#FFFFFF">3</text>
<text x="648" y="640" font-size="13" text-anchor="start" font-weight="400" fill="#1B2A2F">Uno 的 GND 必须和舵机电源 GND 相连</text>
<path d="M620,675 L648,675" fill="none" stroke="#1F6FB5" stroke-width="3" stroke-linejoin="round" stroke-linecap="round"/>
<text x="654" y="679" font-size="12" text-anchor="start" font-weight="400" fill="#5E6E72">信号</text>
<path d="M690,675 L718,675" fill="none" stroke="#A87B00" stroke-width="3" stroke-linejoin="round" stroke-linecap="round"/>
<text x="724" y="679" font-size="12" text-anchor="start" font-weight="400" fill="#5E6E72">5 V</text>
<path d="M773,675 L801,675" fill="none" stroke="#222222" stroke-width="3" stroke-linejoin="round" stroke-linecap="round"/>
<text x="807" y="679" font-size="12" text-anchor="start" font-weight="400" fill="#5E6E72">GND</text>
</svg>